<svg fill="white" height="512" viewBox="0 0 508.021 508.021" width="512" xmlns="http://www.w3.org/2000/svg">
<path d="m399.055 191.908h-57.369c-7.436-52.896-52.983-93.728-107.896-93.728h-124.823c-60.085 0-108.967 48.882-108.967 108.967 0 60.084 48.882 108.967 108.967 108.967h57.369c7.435 52.896 52.983 93.728 107.896 93.728h124.823c60.084 0 108.967-48.882 108.967-108.967-.001-60.085-48.883-108.967-108.967-108.967zm0 185.934h-124.823c-42.439 0-76.967-34.527-76.967-76.967 0-42.439 34.527-76.967 76.967-76.967 8.836 0 16-7.164 16-16s-7.164-16-16-16c-54.386 0-99.591 40.05-107.678 92.206h-57.588c-42.439 0-76.966-34.528-76.966-76.968 0-42.439 34.527-76.967 76.967-76.967h124.823c42.439 0 76.967 34.527 76.967 76.967 0 42.439-34.527 76.967-76.967 76.967-8.836 0-16 7.164-16 16s7.164 16 16 16c54.386 0 99.591-40.05 107.678-92.206h57.588c42.439 0 76.967 34.527 76.967 76.967-.002 42.44-34.529 76.968-76.968 76.968z"/>
</svg>